<svg xmlns="http://www.w3.org/2000/svg" xmlns:xlink="http://www.w3.org/1999/xlink" width="412.526" height="273.142" viewBox="0 0 412.526 273.142"><defs><clipPath id="a"><path d="M253.437,833.341H117.529V974.025Z" transform="translate(-117.529 -833.341)" fill="none"/></clipPath><clipPath id="b"><path d="M340.225,972.79l2.883-135.878-140.653-2.984Z" transform="translate(-202.454 -833.928)" fill="none"/></clipPath></defs><g transform="translate(0 -861)"><path d="M136.238,0V134.934H0Z" transform="translate(136.526 861) rotate(90)" fill="#e3434f"/><path d="M136.238,0V134.934H0Z" transform="translate(412.526 996) rotate(90)" fill="#e3434f"/><g transform="translate(-117.529 160.117)"><rect width="135.614" height="135.614" transform="translate(117.676 835.876)" fill="#3cadaa"/><g transform="translate(117.529 833.341)"><g clip-path="url(#a)"><line x1="132.683" y2="137.222" fill="none" stroke="#ffc137" stroke-miterlimit="10" stroke-width="3"/><line x1="132.683" y2="137.222" transform="translate(-6.175 -6.325)" fill="none" stroke="#ffc137" stroke-miterlimit="10" stroke-width="3"/><line x1="132.683" y2="137.222" transform="translate(-12.351 -12.651)" fill="none" stroke="#ffc137" stroke-miterlimit="10" stroke-width="3"/><line x1="132.683" y2="137.222" transform="translate(-18.526 -18.976)" fill="none" stroke="#ffc137" stroke-miterlimit="10" stroke-width="3"/><line x1="132.683" y2="137.222" transform="translate(-24.701 -25.302)" fill="none" stroke="#ffc137" stroke-miterlimit="10" stroke-width="3"/><line x1="132.683" y2="137.222" transform="translate(-30.876 -31.627)" fill="none" stroke="#ffc137" stroke-miterlimit="10" stroke-width="3"/><line x1="132.683" y2="137.222" transform="translate(-37.052 -37.952)" fill="none" stroke="#ffc137" stroke-miterlimit="10" stroke-width="3"/><line x1="132.683" y2="137.222" transform="translate(-43.227 -44.278)" fill="none" stroke="#ffc137" stroke-miterlimit="10" stroke-width="3"/><line x1="132.683" y2="137.222" transform="translate(-49.402 -50.603)" fill="none" stroke="#ffc137" stroke-miterlimit="10" stroke-width="3"/><line x1="132.683" y2="137.222" transform="translate(-55.577 -56.929)" fill="none" stroke="#ffc137" stroke-miterlimit="10" stroke-width="3"/><line x1="132.683" y2="137.222" transform="translate(-61.753 -63.254)" fill="none" stroke="#ffc137" stroke-miterlimit="10" stroke-width="3"/><line x1="132.683" y2="137.222" transform="translate(-67.928 -69.579)" fill="none" stroke="#ffc137" stroke-miterlimit="10" stroke-width="3"/></g></g><g transform="translate(250.771 834.263)"><g clip-path="url(#b)"><g transform="translate(3.462 -60.324)"><line x1="134.377" y1="135.563" transform="translate(0 60.397)" fill="none" stroke="#7680bd" stroke-miterlimit="10" stroke-width="3"/><line x1="134.377" y1="135.563" transform="translate(6.455 54.358)" fill="none" stroke="#7680bd" stroke-miterlimit="10" stroke-width="3"/><line x1="134.377" y1="135.563" transform="translate(12.91 48.318)" fill="none" stroke="#7680bd" stroke-miterlimit="10" stroke-width="3"/><line x1="134.377" y1="135.563" transform="translate(19.365 42.278)" fill="none" stroke="#7680bd" stroke-miterlimit="10" stroke-width="3"/><line x1="134.377" y1="135.563" transform="translate(25.82 36.238)" fill="none" stroke="#7680bd" stroke-miterlimit="10" stroke-width="3"/><line x1="134.377" y1="135.563" transform="translate(32.275 30.199)" fill="none" stroke="#7680bd" stroke-miterlimit="10" stroke-width="3"/><line x1="134.377" y1="135.563" transform="translate(38.73 24.159)" fill="none" stroke="#7680bd" stroke-miterlimit="10" stroke-width="3"/><line x1="134.377" y1="135.563" transform="translate(45.185 18.119)" fill="none" stroke="#7680bd" stroke-miterlimit="10" stroke-width="3"/><line x1="134.377" y1="135.563" transform="translate(51.64 12.08)" fill="none" stroke="#7680bd" stroke-miterlimit="10" stroke-width="3"/><line x1="134.377" y1="135.563" transform="translate(58.095 6.04)" fill="none" stroke="#7680bd" stroke-miterlimit="10" stroke-width="3"/><line x1="134.377" y1="135.563" transform="translate(64.55)" fill="none" stroke="#7680bd" stroke-miterlimit="10" stroke-width="3"/></g><line x1="134.377" y1="135.563" transform="translate(74.467 -66.363)" fill="none" stroke="#805c35" stroke-miterlimit="10" stroke-width="3"/></g></g><path d="M339.674,970.571H204.06V834.957" transform="translate(49.23 0.919)" fill="#ffc137"/></g></g></svg>