<svg xmlns="http://www.w3.org/2000/svg" width="157.855" height="136.888" viewBox="0 0 157.855 136.888"><g transform="translate(-0.001 -17.557)"><path d="M154.707,52.845,122.574,20.712a10.77,10.77,0,0,0-15.231,0l-7.551,7.551a10.693,10.693,0,0,0-2.51,3.983L61.95,25.92h-.008a29.482,29.482,0,0,0-34.6,23.063l-1.63,8.083a16.515,16.515,0,0,0,32.378,6.527l1-4.943,15.844,1.385,41.375,41.375,7.5,7.5a3.895,3.895,0,0,1-5.507,5.508L98.21,94.329A3.583,3.583,0,0,0,93.144,99.4l20.087,20.087a3.894,3.894,0,0,1-5.507,5.507L87.636,104.9a3.583,3.583,0,1,0-5.067,5.067l20.087,20.087a3.894,3.894,0,0,1-5.507,5.507L77.062,115.477A3.583,3.583,0,0,0,72,120.544l20.087,20.087a3.895,3.895,0,0,1-5.507,5.508L15.5,75.067,6.117,65.681A3.583,3.583,0,0,0,1.05,70.748l9.386,9.386L20.65,90.348l-5.63,5.63a9.761,9.761,0,0,0,0,13.8l1.837,1.837a9.689,9.689,0,0,0,5.927,2.811,9.686,9.686,0,0,0,2.811,5.926l1.837,1.838a9.712,9.712,0,0,0,5.925,2.8,9.685,9.685,0,0,0,2.812,5.933l1.837,1.837a9.688,9.688,0,0,0,5.927,2.811,9.689,9.689,0,0,0,2.811,5.927l1.837,1.837a9.773,9.773,0,0,0,13.8,0l5.63-5.63,13.492,13.492a11.046,11.046,0,0,0,18.858-7.357,11,11,0,0,0,10.57-10.579A10.994,10.994,0,0,0,121.511,122.7a11.042,11.042,0,0,0,7.362-18.854l-4.965-4.965,18.167-18.167,12.633-12.633a10.784,10.784,0,0,0,0-15.232ZM20.086,104.715a2.6,2.6,0,0,1,0-3.671l5.28-5.28,5.508,5.508-5.28,5.28a2.6,2.6,0,0,1-3.671,0ZM30.661,115.29a2.6,2.6,0,0,1,0-3.67l5.28-5.28,5.508,5.508-5.279,5.28a2.6,2.6,0,0,1-3.671,0l-1.838-1.838Zm10.574,10.575a2.595,2.595,0,0,1,0-3.67l5.28-5.28,5.507,5.507-5.28,5.28a2.6,2.6,0,0,1-3.67,0l-1.837-1.837Zm16.083,12.412a2.6,2.6,0,0,1-3.671,0l-1.837-1.837a2.6,2.6,0,0,1,0-3.671l5.28-5.28L62.6,133l-5.28,5.28ZM118.84,93.809,79.075,54.044a3.578,3.578,0,0,0-2.221-1.035L56.52,51.231c-.106-.01-.211-.014-.315-.014A3.584,3.584,0,0,0,52.7,54.093l-1.63,8.083a9.349,9.349,0,1,1-18.329-3.7l1.63-8.083A22.3,22.3,0,0,1,60.611,32.959l.076.014L95.5,39.207l4.287,4.287,34.682,34.682Zm30.8-30.8-10.1,10.1L104.857,38.427a3.605,3.605,0,0,1,0-5.1l7.551-7.551a3.6,3.6,0,0,1,5.1,0L149.639,57.91a3.606,3.606,0,0,1,0,5.1Z" transform="translate(0 0)" fill="#ffc137"/><circle cx="3.583" cy="3.583" r="3.583" transform="translate(137.384 58.3)" fill="#ffc137"/></g></svg>