<svg xmlns="http://www.w3.org/2000/svg" width="173.183" height="127.136" viewBox="0 0 173.183 127.136"><g transform="translate(0 -68.066)"><g transform="translate(132.847 122.315)"><path d="M412.7,231.429c-5.893-2.946-16.942-2.98-17.409-2.98a2.537,2.537,0,0,0,0,5.074c2.851,0,11.129.439,15.14,2.445a2.537,2.537,0,0,0,2.269-4.538Z" transform="translate(-392.751 -228.449)" fill="#ffc137"/></g><g transform="translate(0 68.066)"><path d="M165.441,161.414l-10.477-2.993a1.064,1.064,0,0,1-.768-1.018v-3.5a19.067,19.067,0,0,0,2.426-1.989,18.662,18.662,0,0,0,5.712-13.5v-4.826l1.013-2.026a16.184,16.184,0,0,0,1.7-7.2V111.29a2.537,2.537,0,0,0-2.537-2.537H138.1a16.118,16.118,0,0,0-16.1,16.1V125a13.456,13.456,0,0,0,1.413,5.987l1.3,2.6v4.144a19.794,19.794,0,0,0,8.138,16V157.4c0,.565,0,.8-2.095,1.4l-5.112,1.461-14.789-5.377a2.534,2.534,0,0,0-.691-1.942l-4.726-4.965v-8.334c.5-.412.992-.834,1.469-1.282a29.774,29.774,0,0,0,9.381-21.645v-6.656A29.324,29.324,0,0,0,119,97.727V70.6a2.537,2.537,0,0,0-2.537-2.537H78.486A24.264,24.264,0,0,0,54.249,92.3v5.425a29.324,29.324,0,0,0,2.712,12.331v5.727a31,31,0,0,0,10.85,23.659v8.531l-4.726,4.965a2.534,2.534,0,0,0-.691,1.942l-15.608,5.675A13.3,13.3,0,0,0,43.65,162.2L41.2,160.976c7.3-3.176,9.607-7.642,9.718-7.864a2.536,2.536,0,0,0,0-2.269c-1.829-3.658-2.05-10.362-2.228-15.749-.059-1.793-.115-3.488-.223-5-.865-12.168-10.115-21.344-21.518-21.344S6.3,117.929,5.431,130.1c-.107,1.509-.163,3.2-.223,5-.178,5.387-.4,12.09-2.228,15.748a2.536,2.536,0,0,0,0,2.269c.111.222,2.417,4.679,9.728,7.859l-6.808,3.4A10.619,10.619,0,0,0,0,173.922v18.742a2.537,2.537,0,0,0,5.074,0V173.922a5.57,5.57,0,0,1,3.1-5.009l8.477-4.239,2.949,2.8a10.669,10.669,0,0,0,14.706,0l2.949-2.8,2.764,1.382a13.359,13.359,0,0,0-2.04,7.083v19.525a2.537,2.537,0,0,0,5.074,0V173.139a8.338,8.338,0,0,1,5.472-7.812l16.456-5.984,6.851,10.276a5.23,5.23,0,0,0,3.85,2.312q.263.026.523.026a5.229,5.229,0,0,0,3.706-1.538l4.179-4.179v26.425a2.537,2.537,0,0,0,5.074,0V166.24l4.179,4.179a5.227,5.227,0,0,0,3.706,1.538q.26,0,.523-.026a5.23,5.23,0,0,0,3.851-2.312l6.851-10.276,16.456,5.984a8.339,8.339,0,0,1,5.472,7.812v19.525a2.537,2.537,0,1,0,5.074,0V173.14a13.411,13.411,0,0,0-3.752-9.282l.627-.179a13.913,13.913,0,0,0,2.361-.852l6.477,6.477v23.361a2.537,2.537,0,1,0,5.074,0V169.3l6.432-6.432a6.036,6.036,0,0,0,1.079.429l10.478,2.993a5.625,5.625,0,0,1,4.062,5.385v20.986a2.537,2.537,0,1,0,5.074,0V171.679A10.721,10.721,0,0,0,165.441,161.414ZM16.275,156.933c-4.745-1.707-7.126-3.984-8.142-5.227a27.964,27.964,0,0,0,1.446-6.075,18.917,18.917,0,0,0,6.7,8.261ZM30.808,163.8a5.6,5.6,0,0,1-7.716,0l-2.359-2.242a5.249,5.249,0,0,0,.617-2.477v-2.7a18.864,18.864,0,0,0,11.2,0v2.7a5.249,5.249,0,0,0,.617,2.478ZM26.95,152.153a13.753,13.753,0,0,1-13.738-13.738,2.521,2.521,0,0,0-2.953-2.5c.007-.218.015-.437.022-.653.056-1.744.111-3.392.211-4.805a18.834,18.834,0,0,1,5.129-11.828,15.762,15.762,0,0,1,22.656,0,18.834,18.834,0,0,1,5.129,11.828c.1,1.413.155,3.06.212,4.8.005.15.01.3.015.453a22.8,22.8,0,0,0-12.53-9.156,31.839,31.839,0,0,0-9.649-1.529,2.537,2.537,0,0,0-1.756.775l-4.577,4.747a2.537,2.537,0,0,0,3.652,3.522l3.809-3.95c3.28.16,13.832,1.387,17.936,10.424A13.7,13.7,0,0,1,26.95,152.153Zm10.673,4.789v-3.026a18.765,18.765,0,0,0,6.7-8.27,27.927,27.927,0,0,0,1.444,6.061C44.755,152.938,42.363,155.235,37.623,156.941Zm24.413-41.156v-6.294a2.537,2.537,0,0,0-.252-1.1,24.334,24.334,0,0,1-2.46-10.661V92.3A19.184,19.184,0,0,1,78.486,73.14h35.438V97.728a24.334,24.334,0,0,1-2.46,10.661,2.537,2.537,0,0,0-.252,1.1v7.223a24.355,24.355,0,0,1-7.777,17.943,25.248,25.248,0,0,1-1.948,1.649l-.044.032a24.393,24.393,0,0,1-16.461,4.911C72.115,140.417,62.036,129.232,62.036,115.786Zm14.284,51.045a.159.159,0,0,1-.141.05.161.161,0,0,1-.129-.077l-7.89-11.835L70.7,152.3l11.969,8.181Zm10.3-9.79-13.738-9.39v-4.735a28.563,28.563,0,0,0,11.768,3.4q1,.065,2,.065a29.385,29.385,0,0,0,13.712-3.36v4.634ZM97.2,166.8a.161.161,0,0,1-.129.077.156.156,0,0,1-.141-.05l-6.348-6.348,11.969-8.182,2.539,2.668Zm46.323-2.14-5.757-5.757a6.96,6.96,0,0,0,.157-1.507V156.33a17.788,17.788,0,0,0,5.024.888c.2.006.389.009.584.009a18.844,18.844,0,0,0,5.593-.846V157.4a6.065,6.065,0,0,0,.183,1.478Zm9.567-16.389a13.634,13.634,0,0,1-9.991,3.872c-7.341-.22-13.314-6.686-13.314-14.414V132.99a2.534,2.534,0,0,0-.268-1.134l-1.567-3.134a8.357,8.357,0,0,1-.877-3.718v-.151A11.038,11.038,0,0,1,138.1,113.827h21.875v10.536a11.084,11.084,0,0,1-1.164,4.931l-1.281,2.561a2.535,2.535,0,0,0-.268,1.134v5.425A13.63,13.63,0,0,1,153.088,148.275Z" transform="translate(0 -68.066)" fill="#ffc137"/></g><g transform="translate(157.259 173.852)"><path d="M467.46,380.814a2.537,2.537,0,0,0-2.537,2.537v16.275a2.537,2.537,0,1,0,5.074,0V383.351A2.537,2.537,0,0,0,467.46,380.814Z" transform="translate(-464.923 -380.814)" fill="#ffc137"/></g><g transform="translate(10.85 177.206)"><path d="M34.614,390.728a2.537,2.537,0,0,0-2.537,2.537v12.921a2.537,2.537,0,1,0,5.074,0V393.265A2.537,2.537,0,0,0,34.614,390.728Z" transform="translate(-32.077 -390.728)" fill="#ffc137"/></g><g transform="translate(65.099 91.113)"><path d="M234.765,143.736c-9.595-9.595-29.669-7.76-37.856-6.526a5.208,5.208,0,0,0-4.45,5.188v5.844a2.537,2.537,0,1,0,5.074,0V142.4a.168.168,0,0,1,.133-.171,80.145,80.145,0,0,1,16.481-.805c7.911.527,13.641,2.512,17.03,5.9a2.537,2.537,0,0,0,3.587-3.587Z" transform="translate(-192.46 -136.203)" fill="#ffc137"/></g><g transform="translate(54.249 179.277)"><path d="M162.921,396.853a2.537,2.537,0,0,0-2.537,2.537v10.85a2.537,2.537,0,1,0,5.074,0V399.39A2.537,2.537,0,0,0,162.921,396.853Z" transform="translate(-160.384 -396.853)" fill="#ffc137"/></g><g transform="translate(113.924 179.277)"><path d="M339.343,396.853a2.537,2.537,0,0,0-2.537,2.537v10.85a2.537,2.537,0,1,0,5.074,0V399.39A2.537,2.537,0,0,0,339.343,396.853Z" transform="translate(-336.806 -396.853)" fill="#ffc137"/></g></g></svg>