<svg id="Agrupar_3" data-name="Agrupar 3" xmlns="http://www.w3.org/2000/svg" width="184.708" height="67.311" viewBox="0 0 184.708 67.311">
  <g id="Agrupar_1" data-name="Agrupar 1">
    <path id="Caminho_1" data-name="Caminho 1" d="M273.9,305.629V238.318h35.891a19.215,19.215,0,0,1,15.82,30.12l-8.418,12.211,17.856,24.979h-9.922L312.265,287.8l-12.292,17.831h-9.934l17.147-24.872-5.662-7.848L279,305.629Zm8.179-59.132v40.157l19.3-27.923,10.732,14.877,6.763-9.811a11.036,11.036,0,0,0-9.086-17.3Z" transform="translate(-273.9 -238.318)" fill="#fff"/>
  </g>
  <path id="Caminho_2" data-name="Caminho 2" d="M337.3,300.128l5.08,7.041-4.928,7.148-5.079-7.041Z" transform="translate(-299.083 -264.94)" fill="#fff"/>
  <path id="Caminho_3" data-name="Caminho 3" d="M419.044,270.179l-2.032-4.985h-9.4l-2.032,4.985H400.6l9.525-22.383h4.508l9.525,22.383Zm-6.73-16.509-2.953,7.207h5.905Z" transform="translate(-328.471 -242.4)" fill="#fff"/>
  <path id="Caminho_4" data-name="Caminho 4" d="M445.61,270.3V248.074H450.5v17.811h11.08V270.3Z" transform="translate(-347.858 -242.52)" fill="#fff"/>
  <path id="Caminho_5" data-name="Caminho 5" d="M482.627,252.488v4.794h10.6v4.413h-10.6v8.6h-4.889V248.074h16.921v4.414Z" transform="translate(-361.696 -242.52)" fill="#fff"/>
  <path id="Caminho_6" data-name="Caminho 6" d="M524.636,270.179l-2.032-4.985h-9.4l-2.032,4.985h-4.984l9.524-22.383h4.508l9.525,22.383Zm-6.73-16.509-2.953,7.207h5.906Z" transform="translate(-373.951 -242.4)" fill="#fff"/>
  <path id="Caminho_7" data-name="Caminho 7" d="M413.786,316.755l-4.762-7.112h-3.842v7.112h-4.889V294.531h10.16a9.054,9.054,0,0,1,6.175,1.937,6.8,6.8,0,0,1,2.207,5.4v.064a6.972,6.972,0,0,1-1.317,4.4,7.636,7.636,0,0,1-3.445,2.492l5.429,7.938Zm.1-14.636a2.837,2.837,0,0,0-1.016-2.381,4.5,4.5,0,0,0-2.826-.793h-4.858v6.382h4.953a4.064,4.064,0,0,0,2.778-.857,2.9,2.9,0,0,0,.968-2.286Z" transform="translate(-328.339 -262.53)" fill="#fff"/>
  <path id="Caminho_8" data-name="Caminho 8" d="M438.612,316.755V294.531H443.5v22.224Z" transform="translate(-344.844 -262.53)" fill="#fff"/>
  <path id="Caminho_9" data-name="Caminho 9" d="M474.188,310.024a10.365,10.365,0,0,1-2.429,3.525,11.5,11.5,0,0,1-3.746,2.349,12.921,12.921,0,0,1-4.778.857h-8.667V294.531h8.667a13.141,13.141,0,0,1,4.778.841,11.289,11.289,0,0,1,3.746,2.333,10.4,10.4,0,0,1,2.429,3.509,11.048,11.048,0,0,1,.857,4.365v.064A11.163,11.163,0,0,1,474.188,310.024Zm-4.255-4.381a7.252,7.252,0,0,0-.492-2.7,6.335,6.335,0,0,0-1.365-2.127,6.051,6.051,0,0,0-2.111-1.381,7.332,7.332,0,0,0-2.73-.492h-3.778v13.4h3.778a7.553,7.553,0,0,0,2.73-.476,5.861,5.861,0,0,0,2.111-1.366,6.4,6.4,0,0,0,1.365-2.095,7.088,7.088,0,0,0,.492-2.7Z" transform="translate(-351.716 -262.53)" fill="#fff"/>
  <path id="Caminho_10" data-name="Caminho 10" d="M495.786,316.755V294.531h16.731v4.349H500.611v4.509h10.477v4.349H500.611V312.4h12.065v4.35Z" transform="translate(-369.469 -262.53)" fill="#fff"/>
  <path id="Caminho_11" data-name="Caminho 11" d="M544.251,316.755l-4.762-7.112h-3.842v7.112h-4.89V294.531h10.16a9.054,9.054,0,0,1,6.175,1.937,6.8,6.8,0,0,1,2.207,5.4v.064a6.972,6.972,0,0,1-1.317,4.4,7.636,7.636,0,0,1-3.445,2.492l5.429,7.938Zm.1-14.636a2.837,2.837,0,0,0-1.016-2.381,4.494,4.494,0,0,0-2.826-.793h-4.857v6.382H540.6a4.064,4.064,0,0,0,2.778-.857,2.9,2.9,0,0,0,.968-2.286Z" transform="translate(-384.532 -262.53)" fill="#fff"/>
  <path id="Caminho_12" data-name="Caminho 12" d="M568.687,316.755V294.531h16.731v4.349H573.512v4.509H583.99v4.349H573.512V312.4h12.065v4.35Z" transform="translate(-400.869 -262.53)" fill="#fff"/>
  <g id="Agrupar_2" data-name="Agrupar 2" transform="translate(71.929 57.738)">
    <path id="Caminho_13" data-name="Caminho 13" d="M400.25,345.258v-.017a2.306,2.306,0,0,1,4.042-1.525l-.437.463a1.788,1.788,0,0,0-1.345-.668,1.634,1.634,0,0,0-1.585,1.713v.017a1.655,1.655,0,0,0,1.628,1.721,1.826,1.826,0,0,0,1.353-.659l.42.393a2.29,2.29,0,0,1-4.077-1.439Z" transform="translate(-400.25 -341.113)" fill="#fff"/>
    <path id="Caminho_14" data-name="Caminho 14" d="M408.617,345.249v-.017a2.184,2.184,0,0,1,2.124-2.3,2.108,2.108,0,0,1,2.064,2.338,1.723,1.723,0,0,1-.009.214h-3.512a1.547,1.547,0,0,0,1.559,1.5,1.832,1.832,0,0,0,1.4-.625l.411.368a2.285,2.285,0,0,1-1.825.831A2.2,2.2,0,0,1,408.617,345.249Zm3.52-.257a1.459,1.459,0,0,0-1.414-1.507,1.527,1.527,0,0,0-1.439,1.507Z" transform="translate(-403.854 -341.113)" fill="#fff"/>
    <path id="Caminho_15" data-name="Caminho 15" d="M418.008,343.022h.659v.771a1.676,1.676,0,0,1,1.516-.865,1.617,1.617,0,0,1,1.7,1.773v2.75h-.66v-2.587a1.18,1.18,0,0,0-1.225-1.336,1.3,1.3,0,0,0-1.328,1.388v2.535h-.659Z" transform="translate(-407.899 -341.113)" fill="#fff"/>
    <path id="Caminho_16" data-name="Caminho 16" d="M427.217,345.337v-2.672H426.6v-.582h.617v-1.336h.659v1.336h1.4v.582h-1.4v2.586a.655.655,0,0,0,.745.737,1.387,1.387,0,0,0,.643-.154v.565a1.658,1.658,0,0,1-.8.188A1.127,1.127,0,0,1,427.217,345.337Z" transform="translate(-411.599 -340.173)" fill="#fff"/>
    <path id="Caminho_17" data-name="Caminho 17" d="M433.357,343.034h.66v1.156a1.9,1.9,0,0,1,1.807-1.234v.711h-.051a1.785,1.785,0,0,0-1.756,2.03v1.764h-.66Z" transform="translate(-414.51 -341.124)" fill="#fff"/>
    <path id="Caminho_18" data-name="Caminho 18" d="M438.639,345.258v-.017a2.308,2.308,0,0,1,4.617-.017v.017a2.3,2.3,0,0,1-2.321,2.312A2.269,2.269,0,0,1,438.639,345.258Zm3.94,0v-.017a1.676,1.676,0,0,0-1.644-1.73,1.634,1.634,0,0,0-1.619,1.713v.017a1.661,1.661,0,0,0,1.636,1.721A1.634,1.634,0,0,0,442.579,345.258Z" transform="translate(-416.785 -341.113)" fill="#fff"/>
    <path id="Caminho_19" data-name="Caminho 19" d="M452.875,345.258v-.017a2.308,2.308,0,0,1,4.617-.017v.017a2.3,2.3,0,0,1-2.321,2.312A2.269,2.269,0,0,1,452.875,345.258Zm3.94,0v-.017a1.676,1.676,0,0,0-1.644-1.73,1.634,1.634,0,0,0-1.619,1.713v.017a1.661,1.661,0,0,0,1.636,1.721A1.634,1.634,0,0,0,456.815,345.258Z" transform="translate(-422.916 -341.113)" fill="#fff"/>
    <path id="Caminho_20" data-name="Caminho 20" d="M462.627,343.94v-.017a2.172,2.172,0,0,1,2.115-2.3,2,2,0,0,1,1.7.942v-2.672h.659v6.253h-.659v-.891a1.992,1.992,0,0,1-1.7.985A2.159,2.159,0,0,1,462.627,343.94Zm3.837-.009v-.017a1.645,1.645,0,0,0-1.6-1.7,1.562,1.562,0,0,0-1.559,1.7v.017a1.6,1.6,0,0,0,1.559,1.713A1.653,1.653,0,0,0,466.464,343.931Z" transform="translate(-427.117 -339.804)" fill="#fff"/>
    <path id="Caminho_21" data-name="Caminho 21" d="M472.589,345.258v-.017a2.308,2.308,0,0,1,4.617-.017v.017a2.3,2.3,0,0,1-2.321,2.312A2.269,2.269,0,0,1,472.589,345.258Zm3.94,0v-.017a1.676,1.676,0,0,0-1.644-1.73,1.634,1.634,0,0,0-1.619,1.713v.017a1.661,1.661,0,0,0,1.635,1.721A1.634,1.634,0,0,0,476.529,345.258Z" transform="translate(-431.407 -341.113)" fill="#fff"/>
    <path id="Caminho_22" data-name="Caminho 22" d="M482.792,343.022h.659v.771a1.678,1.678,0,0,1,1.516-.865,1.617,1.617,0,0,1,1.7,1.773v2.75H486v-2.587a1.181,1.181,0,0,0-1.225-1.336,1.3,1.3,0,0,0-1.328,1.388v2.535h-.659Z" transform="translate(-435.802 -341.113)" fill="#fff"/>
    <path id="Caminho_23" data-name="Caminho 23" d="M492,345.337v-2.672h-.617v-.582H492v-1.336h.659v1.336h1.4v.582h-1.4v2.586a.655.655,0,0,0,.745.737,1.383,1.383,0,0,0,.642-.154v.565a1.654,1.654,0,0,1-.8.188A1.127,1.127,0,0,1,492,345.337Z" transform="translate(-439.503 -340.173)" fill="#fff"/>
    <path id="Caminho_24" data-name="Caminho 24" d="M497.434,345.258v-.017a2.308,2.308,0,0,1,4.617-.017v.017a2.3,2.3,0,0,1-2.321,2.312A2.269,2.269,0,0,1,497.434,345.258Zm3.94,0v-.017a1.676,1.676,0,0,0-1.644-1.73,1.634,1.634,0,0,0-1.619,1.713v.017a1.661,1.661,0,0,0,1.635,1.721A1.634,1.634,0,0,0,501.374,345.258Z" transform="translate(-442.108 -341.113)" fill="#fff"/>
    <path id="Caminho_25" data-name="Caminho 25" d="M507.743,339.889h.659v6.253h-.659Z" transform="translate(-446.549 -339.804)" fill="#fff"/>
    <path id="Caminho_26" data-name="Caminho 26" d="M511.113,343.884v-.017a2.308,2.308,0,0,1,4.617-.017v.017a2.3,2.3,0,0,1-2.321,2.312A2.269,2.269,0,0,1,511.113,343.884Zm3.94,0v-.017a1.676,1.676,0,0,0-1.644-1.73,1.634,1.634,0,0,0-1.619,1.713v.017a1.661,1.661,0,0,0,1.636,1.722A1.634,1.634,0,0,0,515.053,343.884Zm-1.1-4.145.685.316-.976.925h-.514Z" transform="translate(-448 -339.739)" fill="#fff"/>
    <path id="Caminho_27" data-name="Caminho 27" d="M521.071,348.221l.3-.513a2.827,2.827,0,0,0,1.7.565,1.455,1.455,0,0,0,1.61-1.576v-.522a2.1,2.1,0,0,1-1.738.934,2.047,2.047,0,0,1-2.081-2.073v-.017a2.056,2.056,0,0,1,2.081-2.09,2.078,2.078,0,0,1,1.73.891v-.8h.659v3.657a2.133,2.133,0,0,1-.565,1.567,2.33,2.33,0,0,1-1.687.591A3.468,3.468,0,0,1,521.071,348.221Zm3.631-3.194v-.017a1.552,1.552,0,0,0-1.628-1.5,1.465,1.465,0,0,0-1.533,1.49v.017a1.5,1.5,0,0,0,1.533,1.508A1.563,1.563,0,0,0,524.7,345.026Z" transform="translate(-452.201 -341.113)" fill="#fff"/>
    <path id="Caminho_28" data-name="Caminho 28" d="M531.338,340.115h.754v.728h-.754Zm.043,1.7h.66v4.428h-.66Z" transform="translate(-456.711 -339.901)" fill="#fff"/>
    <path id="Caminho_29" data-name="Caminho 29" d="M534.784,345.258v-.017a2.306,2.306,0,0,1,4.042-1.525l-.437.463a1.788,1.788,0,0,0-1.345-.668,1.634,1.634,0,0,0-1.585,1.713v.017a1.654,1.654,0,0,0,1.628,1.721,1.827,1.827,0,0,0,1.353-.659l.42.393a2.29,2.29,0,0,1-4.077-1.439Z" transform="translate(-458.196 -341.113)" fill="#fff"/>
    <path id="Caminho_30" data-name="Caminho 30" d="M543.151,345.258v-.017a2.308,2.308,0,0,1,4.617-.017v.017a2.3,2.3,0,0,1-2.321,2.312A2.269,2.269,0,0,1,543.151,345.258Zm3.941,0v-.017a1.676,1.676,0,0,0-1.645-1.73,1.634,1.634,0,0,0-1.619,1.713v.017a1.661,1.661,0,0,0,1.635,1.721A1.634,1.634,0,0,0,547.092,345.258Z" transform="translate(-461.799 -341.113)" fill="#fff"/>
  </g>
</svg>
