<svg xmlns="http://www.w3.org/2000/svg" width="134.712" height="134.712" viewBox="0 0 134.712 134.712"><path d="M133.941,24.71,110,.771A2.631,2.631,0,0,0,108.138,0H29.994A7.9,7.9,0,0,0,22.1,7.893v5.016A34.811,34.811,0,0,0,0,45.279,2.631,2.631,0,0,0,2.631,47.91H34.754a2.631,2.631,0,0,0,2.631-2.631V13.155a2.631,2.631,0,0,0-2.631-2.631,34.739,34.739,0,0,0-7.391.794V7.893a2.634,2.634,0,0,1,2.631-2.631h75.512v16.05a7.9,7.9,0,0,0,7.893,7.893h16.05v97.613a2.634,2.634,0,0,1-2.631,2.631H29.994a2.634,2.634,0,0,1-2.631-2.631v-22.54a2.631,2.631,0,1,0-5.262,0v22.54a7.9,7.9,0,0,0,7.893,7.893h96.824a7.9,7.9,0,0,0,7.893-7.893V26.571A2.631,2.631,0,0,0,133.941,24.71ZM32.123,15.9V42.648H5.378A29.541,29.541,0,0,1,32.123,15.9Zm81.277,8.04a2.634,2.634,0,0,1-2.631-2.631V8.983l14.962,14.96Z"/><g transform="translate(22.101 92.088)"><path d="M88.491,350.771a2.629,2.629,0,1,0,.771,1.86A2.649,2.649,0,0,0,88.491,350.771Z" transform="translate(-84 -350)"/></g><g transform="translate(9.424 19.949)"><path d="M70.573,75.819a2.631,2.631,0,0,0-2.631,2.631v29.492H38.45a2.631,2.631,0,0,0-2.631,2.631A34.754,34.754,0,1,0,70.573,75.819ZM73.2,81.2a29.359,29.359,0,0,1,16.27,6.754L73.2,104.221Zm-2.631,58.867A29.532,29.532,0,0,1,41.2,113.2H70.573a2.623,2.623,0,0,0,1.86-.77h0L93.2,91.672a29.477,29.477,0,0,1-22.622,48.393Z" transform="translate(-35.819 -75.819)"/></g><g transform="translate(40.494 83.038)"><path d="M228.672,315.605a7.893,7.893,0,0,0-7.269,10.97l-15.158,15.158a7.879,7.879,0,0,0-6.816-.035l-10.066-10.066a7.894,7.894,0,1,0-14.516.433l-9.655,9.655a7.894,7.894,0,1,0,3.725,3.717l9.6-9.6a7.868,7.868,0,0,0,7.392-.215l9.782,9.782a7.894,7.894,0,1,0,14.25.076l15.017-15.017a7.892,7.892,0,1,0,3.713-14.856ZM161.8,351.475a2.631,2.631,0,1,1,1.82-4.526c.011.011.02.023.031.034s.026.023.039.035a2.628,2.628,0,0,1-1.89,4.457Zm20.214-20.084a2.631,2.631,0,1,1,2.631-2.631A2.634,2.634,0,0,1,182.012,331.391ZM202.8,351.464a2.631,2.631,0,1,1,2.631-2.631A2.634,2.634,0,0,1,202.8,351.464Zm25.873-25.335A2.631,2.631,0,1,1,231.3,323.5,2.634,2.634,0,0,1,228.671,326.129Z" transform="translate(-153.905 -315.605)"/></g><g transform="translate(85.592 61.831)"><path d="M341.829,235H327.942a2.631,2.631,0,1,0,0,5.262h13.887a2.631,2.631,0,1,0,0-5.262Z" transform="translate(-325.311 -235)"/></g><g transform="translate(111.458 61.831)"><path d="M428.111,235.771a2.629,2.629,0,1,0,.771,1.86A2.65,2.65,0,0,0,428.111,235.771Z" transform="translate(-423.62 -235)"/></g><g transform="translate(85.592 36.572)"><path d="M360.082,139h-32.14a2.631,2.631,0,1,0,0,5.262h32.14a2.631,2.631,0,0,0,0-5.262Z" transform="translate(-325.311 -139)"/></g><g transform="translate(85.592 49.201)"><path d="M360.082,187h-32.14a2.631,2.631,0,1,0,0,5.262h32.14a2.631,2.631,0,0,0,0-5.262Z" transform="translate(-325.311 -187)"/></g></svg>