<svg xmlns="http://www.w3.org/2000/svg" width="129.255" height="142.24" viewBox="0 0 129.255 142.24"><g transform="translate(-8.988 0)"><g transform="translate(8.988 0.001)"><path d="M138.031,62.53a33.827,33.827,0,0,0-4.255-12.411c.752-12.326-1.692-21.607-7.266-27.594a20.52,20.52,0,0,0-12-6.36c-3.932-8.312-10.616-9.92-14.679-9.529C92.224-.449,85.188-.617,80.552.539a20.359,20.359,0,0,0-6.937,3.277A20.333,20.333,0,0,0,66.678.539C62.041-.62,55-.451,47.4,6.635,43.331,6.243,36.65,7.852,32.72,16.164a20.512,20.512,0,0,0-12,6.36c-5.576,5.988-8.018,15.269-7.266,27.594A33.843,33.843,0,0,0,9.2,62.53c-.837,6.713.441,16.18,10.937,23.861-1.216,7.18-.065,19.541,11.4,25.619-.476,2.612-.792,7.143,1.54,11.015,1.833,3.046,4.862,5.05,9.013,5.966,2.1,3.234,9.319,13.25,18.334,13.25H60.6c4.833-.069,9.2-2.926,13.016-8.5,3.818,5.576,8.185,8.434,13.016,8.5,9.081.133,16.4-9.995,18.507-13.249,4.151-.916,7.18-2.919,9.013-5.966,2.333-3.873,2.015-8.4,1.54-11.015,11.469-6.078,12.62-18.438,11.4-25.619C137.591,78.709,138.87,69.243,138.031,62.53ZM122.982,83.25a2.466,2.466,0,0,0-1.024,2.65c.168.67,3.938,16.466-10.1,22.481a2.465,2.465,0,0,0-1.368,3.046c.017.053,1.68,5.331-.565,9.056-1.216,2.022-3.478,3.321-6.718,3.861a2.468,2.468,0,0,0-1.724,1.188c-1.928,3.29-8.3,11.778-14.682,11.778h-.11c-3.837-.059-7.493-3.225-10.867-9.41a2.617,2.617,0,0,0-2.259-1.284A2.465,2.465,0,0,0,71.4,127.9c-3.373,6.185-7.029,9.351-10.867,9.41-6.386.1-12.852-8.468-14.792-11.778a2.47,2.47,0,0,0-1.724-1.188c-3.23-.539-5.486-1.832-6.706-3.842-2.272-3.745-.591-9.03-.576-9.077a2.466,2.466,0,0,0-1.368-3.046C21.4,102.4,25.107,86.565,25.27,85.9a2.466,2.466,0,0,0-1.024-2.65C5.851,70.987,17.515,52.869,18.018,52.108a2.471,2.471,0,0,0,.408-1.544c-.8-11.242,1.158-19.518,5.83-24.6A15.113,15.113,0,0,1,34.4,20.947,2.466,2.466,0,0,0,36.688,19.4c2.759-6.9,7.193-7.882,9.5-7.882a6.608,6.608,0,0,1,1.438.143,2.464,2.464,0,0,0,2.341-.649C54.983,6,60.14,4.069,65.294,5.279a15.237,15.237,0,0,1,6.529,3.428,2.467,2.467,0,0,0,1.743.722h.094A2.465,2.465,0,0,0,75.4,8.708a15.208,15.208,0,0,1,6.343-3.384c5.215-1.3,10.436.608,15.515,5.687a2.508,2.508,0,0,0,2.318.654c.736-.169,7.312-1.386,10.96,7.734a2.487,2.487,0,0,0,2.273,1.549,15.109,15.109,0,0,1,10.159,5.015c4.672,5.083,6.633,13.36,5.83,24.6a2.472,2.472,0,0,0,.408,1.544,28.513,28.513,0,0,1,3.925,11.034C134.156,71.312,130.74,78.078,122.982,83.25Z" transform="translate(-8.988 -0.001)" fill="#1a2633"/></g><g transform="translate(96.447 16.017)"><path d="M148.691,23.859a2.469,2.469,0,0,0-3.119-1.56c-15.334,5.111-15.511,17.926-15.511,18.468a2.458,2.458,0,0,0,2.448,2.457h.017a2.474,2.474,0,0,0,2.465-2.44c.007-.4.272-9.852,12.139-13.807A2.466,2.466,0,0,0,148.691,23.859Z" transform="translate(-130.061 -22.173)" fill="#1a2633"/></g><g transform="translate(98.75 75.92)"><path d="M160.715,112.984a2.466,2.466,0,0,0-3.456-.466c-4.018,3.061-7.651,4.152-10.792,3.247-5.6-1.612-8.416-8.983-8.442-9.058a2.465,2.465,0,0,0-4.623,1.713c.147.4,3.684,9.752,11.671,12.074a12.965,12.965,0,0,0,3.641.519c3.676,0,7.542-1.53,11.535-4.575A2.466,2.466,0,0,0,160.715,112.984Z" transform="translate(-133.248 -105.099)" fill="#1a2633"/></g><g transform="translate(80.32 85.139)"><path d="M111.944,118.583a2.465,2.465,0,0,0-3.486,3.486c8.006,8.006,6.345,15.741,6.26,16.107a2.465,2.465,0,0,0,1.8,2.975,2.506,2.506,0,0,0,.6.074,2.467,2.467,0,0,0,2.39-1.869C119.613,138.925,122.031,128.671,111.944,118.583Z" transform="translate(-107.735 -117.861)" fill="#1a2633"/></g><g transform="translate(85.721 38.824)"><path d="M152.275,77.676a2.469,2.469,0,0,0-3.156-1.478c-.5.178-12.256,4.289-18.5-4.021a40.369,40.369,0,0,1-5.757-10.982c-1.375-3.643-2.671-7.085-6.982-7.44a2.465,2.465,0,0,0-.4,4.914c1.032.084,1.42.683,2.772,4.266a45.278,45.278,0,0,0,6.429,12.2c4.3,5.718,10.291,7.154,15.233,7.154a28.3,28.3,0,0,0,8.9-1.46A2.462,2.462,0,0,0,152.275,77.676Z" transform="translate(-115.212 -53.745)" fill="#1a2633"/></g><g transform="translate(71.103 4.498)"><path d="M97.441,6.226a2.466,2.466,0,0,0-2.465,2.465V130.806a2.465,2.465,0,0,0,4.931,0V8.691A2.466,2.466,0,0,0,97.441,6.226Z" transform="translate(-94.976 -6.226)" fill="#1a2633"/></g><g transform="translate(78.584 23.309)"><path d="M118.345,34.7a2.431,2.431,0,0,0-2.5-2.43,2.466,2.466,0,0,0-2.43,2.5c0,.154.137,15.527-7.551,25.277a2.465,2.465,0,1,0,3.871,3.054C118.494,51.992,118.354,35.4,118.345,34.7Z" transform="translate(-105.332 -32.267)" fill="#1a2633"/></g><g transform="translate(80.318 101.267)"><path d="M124.024,140.187c-10.869,0-15.953,14.876-16.164,15.511a2.464,2.464,0,0,0,1.557,3.116,2.439,2.439,0,0,0,.782.128,2.469,2.469,0,0,0,2.339-1.683c1.136-3.377,5.413-12.141,11.486-12.141a2.465,2.465,0,1,0,0-4.931Z" transform="translate(-107.733 -140.187)" fill="#1a2633"/></g><g transform="translate(89.534 5.764)"><path d="M130.343,8.467a2.465,2.465,0,0,0-3.449.506l-5.915,7.948a2.465,2.465,0,1,0,3.956,2.943l5.915-7.948A2.466,2.466,0,0,0,130.343,8.467Z" transform="translate(-120.491 -7.979)" fill="#1a2633"/></g><g transform="translate(39.046 22.188)"><path d="M60.46,30.715a9.862,9.862,0,1,0,9.862,9.862A9.874,9.874,0,0,0,60.46,30.715Zm0,14.794a4.932,4.932,0,1,1,4.932-4.932A4.937,4.937,0,0,1,60.46,45.509Z" transform="translate(-50.598 -30.715)" fill="#1a2633"/></g><g transform="translate(21.785 54.241)"><path d="M36.566,75.088a9.862,9.862,0,1,0,9.862,9.862A9.874,9.874,0,0,0,36.566,75.088Zm0,14.794A4.932,4.932,0,1,1,41.5,84.95,4.937,4.937,0,0,1,36.566,89.882Z" transform="translate(-26.704 -75.088)" fill="#1a2633"/></g><g transform="translate(46.443 76.433)"><path d="M70.7,105.808a9.862,9.862,0,1,0,9.863,9.862A9.874,9.874,0,0,0,70.7,105.808Zm0,14.794a4.932,4.932,0,1,1,4.932-4.932A4.937,4.937,0,0,1,70.7,120.6Z" transform="translate(-60.838 -105.808)" fill="#1a2633"/></g><g transform="translate(46.443 103.555)"><path d="M70.7,143.355a9.862,9.862,0,1,0,9.863,9.862A9.874,9.874,0,0,0,70.7,143.355Zm0,14.794a4.932,4.932,0,1,1,4.932-4.932A4.937,4.937,0,0,1,70.7,158.149Z" transform="translate(-60.838 -143.355)" fill="#1a2633"/></g><g transform="translate(46.443 36.982)"><path d="M63.3,51.195a2.466,2.466,0,0,0-2.465,2.465V78.317a2.465,2.465,0,1,0,4.931,0V53.66A2.466,2.466,0,0,0,63.3,51.195Z" transform="translate(-60.838 -51.195)" fill="#1a2633"/></g><g transform="translate(36.58 61.638)"><path d="M66.91,85.328H49.649a2.465,2.465,0,0,0,0,4.931h17.26a2.465,2.465,0,0,0,0-4.931Z" transform="translate(-47.184 -85.328)" fill="#1a2633"/></g><g transform="translate(53.84 61.638)"><path d="M73.543,85.328a2.466,2.466,0,0,0-2.465,2.465v14.794a2.465,2.465,0,0,0,4.931,0V87.793A2.466,2.466,0,0,0,73.543,85.328Z" transform="translate(-71.078 -85.328)" fill="#1a2633"/></g><g transform="translate(53.84 91.227)"><path d="M73.543,126.288a2.466,2.466,0,0,0-2.465,2.465v12.329a2.465,2.465,0,0,0,4.931,0V128.753A2.466,2.466,0,0,0,73.543,126.288Z" transform="translate(-71.078 -126.288)" fill="#1a2633"/></g></g></svg>