<svg xmlns="http://www.w3.org/2000/svg" width="134.715" height="134.037" viewBox="0 0 134.715 134.037"><g transform="translate(0 -0.261)"><path d="M124.336,110.233a3.355,3.355,0,0,0-3.355,3.355v29.789a10.075,10.075,0,0,1-10.065,10.065H16.775A10.075,10.075,0,0,1,6.71,143.377V55.947A10.077,10.077,0,0,1,16.775,45.882H46.565a3.355,3.355,0,0,0,0-6.71H16.775A16.794,16.794,0,0,0,0,55.947v87.431a16.794,16.794,0,0,0,16.775,16.775h94.14a16.794,16.794,0,0,0,16.775-16.775V113.588A3.355,3.355,0,0,0,124.336,110.233Zm0,0" transform="translate(0 -25.856)" fill="#1a2633"/><path d="M198.253,4.683a15.1,15.1,0,0,0-21.352,0L117.045,64.54a3.354,3.354,0,0,0-.861,1.477l-7.871,28.417a3.354,3.354,0,0,0,4.128,4.13l28.417-7.873a3.354,3.354,0,0,0,1.477-.861L202.19,29.972a15.115,15.115,0,0,0,0-21.352Zm-73.9,62.038,48.988-48.99,15.8,15.8-48.99,48.99ZM121.2,73.053l12.622,12.624-17.46,4.837Zm76.247-47.826-3.558,3.558-15.8-15.8,3.56-3.558a8.387,8.387,0,0,1,11.861,0l3.938,3.937A8.4,8.4,0,0,1,197.446,25.228Zm0,0" transform="translate(-71.891)" fill="#1a2633"/></g></svg>