<svg xmlns="http://www.w3.org/2000/svg" width="195.526" height="118.284" viewBox="0 0 195.526 118.284"><g transform="translate(0 -101.131)"><g transform="translate(136.935 101.131)"><g transform="translate(0 0)"><path d="M402.833,118.193l-7-12.393a9.885,9.885,0,0,0-5.759-4.325c-3.593-.973-6.9.237-10.138,2.1-7.02,4.051-13.529,8.557-17.742,7.4a2.866,2.866,0,1,0-1.509,5.529c6.684,1.824,13.579-2.984,22.92-8.38,4.715-2.723,6.742-.3,7.263.532l6.97,12.346a2.866,2.866,0,1,0,4.991-2.818Z" transform="translate(-358.576 -101.131)" fill="#1a2633"/></g></g><g transform="translate(0 101.167)"><path d="M193.461,139.614l-5.642-9.771a2.866,2.866,0,0,0-4.964,2.866l5.641,9.771c2.263,3.922,1.23,6.811-1.206,8.19-.054.031-1.255.725-1.306.756-.347.21,1.411-.807-10.725,6.187a17.511,17.511,0,0,0-7.428,8.712c-4.249,13.547-1.892,10.589-26.1,24.54a11.353,11.353,0,0,0-3.074-8.807,11.262,11.262,0,0,0,.358-19.721l-35.534-20.517,5.867-3.387a2.866,2.866,0,0,0-1.069-5.325c-.1-.013-26.144-3.35-26.243-3.36-8.256-.8-7.6-10.584-.946-11.373,44.528-4.991,41.463-4.8,44.973-4.628a2.866,2.866,0,0,0,.282-5.725c-4.233-.207-2.932-.159-28.593,2.718-25.98-2.912-24.106-2.769-26.522-2.769-8.968,0-14.858,3.255-17.739,3.257-3.438,0-8.161-2.845-11.2-4.6-6.24-3.663-5.893-3.4-5.893-3.4-6.939-4.006-12.78-1.421-15.1,2.643-9.791,17.343-8.552,15.242-19.26,33.743-4.2,7.28-1.346,13.39,3.316,16.027h0s-.1-.048,12.022,6.937c9.017,5.2,2.468,15.353,16.692,23.549,59.833,34.485,56.644,33.341,60.762,33.341a11.31,11.31,0,0,0,11.3-11.179c4.83,2.789,6.7,4.263,10.4,4.263a11.308,11.308,0,0,0,10.164-6.371c2.5-1.442-1.048.569,34.735-20.054,6.078-3.5,8.518-7.978,9.432-10.334.053-.137,2.372-7.542,2.416-7.682a11.883,11.883,0,0,1,4.843-5.532c11.433-6.589,12.023-6.938,12.023-6.938h0C194.025,153.447,198.091,147.636,193.461,139.614ZM80.293,154.46l52.971,30.577A5.56,5.56,0,0,1,129.2,195.26c-1.186-.279,2.913,1.955-55.435-31.742a2.866,2.866,0,0,0-2.866,4.964c52.038,30.053,49.394,28.188,50.436,29.978a5.565,5.565,0,0,1-7.577,7.616l-4.011-2.315h0l-9.262-5.347L64.925,177.882a2.866,2.866,0,1,0-2.865,4.964l35.565,20.531a5.559,5.559,0,0,1-2.786,10.361c-2.124,0,1.525,1.676-57.9-32.576-4.48-2.581-6.25-5.684-6.916-7.357-.02-.064-2.35-7.494-2.372-7.558a17.492,17.492,0,0,0-7.4-8.634c-19.335-11.144-3.96-2.279-12.029-6.943-3.016-1.777-3.075-4.953-1.206-8.19,11.645-20.168,7.526-12.957,19.267-33.755a4.027,4.027,0,0,1,3.355-1.794c1.872,0,3.464.916,7.968,3.582,14.622,8.663,15.309,7.026,26.036,4.1a30.957,30.957,0,0,1,12.3-.549c-8.608,4.808-7.815,20.059,5.509,21.387l3.283.42a2.867,2.867,0,0,0,1.432,2.564c53.887,31.113,50.462,29.009,51.286,29.882,4,4.251-.54,10.864-5.8,9.034-.789-.263,2.164,1.383-48.483-27.852a2.866,2.866,0,0,0-2.866,4.963Z" transform="translate(0 -101.226)" fill="#1a2633"/></g></g></svg>