<svg xmlns="http://www.w3.org/2000/svg" width="260" height="78.81" viewBox="0 0 260 78.81"><g transform="translate(-225.911 -238.52)"><g transform="translate(225.911 238.52)"><path d="M225.911,317.33V238.52h42.023a22.5,22.5,0,0,1,18.523,35.267l-9.856,14.3,20.907,29.247H285.89l-15.059-20.877L256.438,317.33H244.807l20.077-29.122-6.63-9.189L231.877,317.33Zm9.576-69.235v47.018l22.6-32.694,12.565,17.419,7.919-11.487A12.922,12.922,0,0,0,267.934,248.1Z" transform="translate(-225.911 -238.52)" fill="#fff"/><path d="M290.149,300.329l5.948,8.245-5.77,8.37L284.38,308.7Z" transform="translate(-245.407 -259.13)" fill="#fff"/><path d="M374.207,274.2l-2.379-5.836h-11l-2.379,5.836H352.61L363.762,248h5.278L380.193,274.2Zm-7.88-19.33-3.457,8.439h6.914Z" transform="translate(-268.159 -241.68)" fill="#fff"/><path d="M397.621,274.3V248.276h5.724V269.13h12.973V274.3Z" transform="translate(-283.168 -241.773)" fill="#fff"/><path d="M435.473,253.443v5.613h12.415v5.167H435.473V274.3h-5.724V248.276h19.813v5.167Z" transform="translate(-293.881 -241.773)" fill="#fff"/><path d="M479.8,274.2l-2.379-5.836h-11l-2.379,5.836H458.2L469.353,248h5.278L485.785,274.2Zm-7.88-19.33-3.458,8.439h6.915Z" transform="translate(-303.368 -241.68)" fill="#fff"/><path d="M368.1,320.753l-5.576-8.327h-4.5v8.327H352.3V294.732h11.9q4.646,0,7.23,2.268a7.966,7.966,0,0,1,2.584,6.319v.075a8.163,8.163,0,0,1-1.542,5.148,8.936,8.936,0,0,1-4.033,2.918l6.356,9.293Zm.111-17.137a3.321,3.321,0,0,0-1.189-2.788,5.258,5.258,0,0,0-3.309-.929h-5.687v7.472h5.8a4.755,4.755,0,0,0,3.253-1,3.4,3.4,0,0,0,1.134-2.677Z" transform="translate(-268.057 -257.264)" fill="#fff"/><path d="M390.623,320.753V294.732h5.724v26.021Z" transform="translate(-280.834 -257.264)" fill="#fff"/><path d="M429.551,312.872A12.128,12.128,0,0,1,426.707,317a13.436,13.436,0,0,1-4.387,2.75,15.127,15.127,0,0,1-5.594,1H406.578V294.732h10.148a15.387,15.387,0,0,1,5.594.985,13.219,13.219,0,0,1,4.387,2.732,12.177,12.177,0,0,1,2.844,4.108,12.941,12.941,0,0,1,1,5.111v.075A13.068,13.068,0,0,1,429.551,312.872Zm-4.982-5.13a8.49,8.49,0,0,0-.576-3.16,7.416,7.416,0,0,0-1.6-2.49,7.086,7.086,0,0,0-2.472-1.617,8.585,8.585,0,0,0-3.2-.576H412.3v15.687h4.423a8.845,8.845,0,0,0,3.2-.558,6.846,6.846,0,0,0,2.472-1.6,7.482,7.482,0,0,0,1.6-2.453,8.3,8.3,0,0,0,.576-3.16Z" transform="translate(-286.154 -257.264)" fill="#fff"/><path d="M447.8,320.753V294.732h19.59v5.092h-13.94V305.1h12.267V310.2H453.447v5.465h14.126v5.092Z" transform="translate(-299.899 -257.264)" fill="#fff"/><path d="M498.568,320.753l-5.576-8.327h-4.5v8.327h-5.725V294.732h11.9q4.646,0,7.23,2.268a7.966,7.966,0,0,1,2.584,6.319v.075a8.163,8.163,0,0,1-1.542,5.148,8.936,8.936,0,0,1-4.033,2.918l6.356,9.293Zm.111-17.137a3.321,3.321,0,0,0-1.189-2.788,5.258,5.258,0,0,0-3.309-.929h-5.687v7.472h5.8a4.755,4.755,0,0,0,3.253-1,3.4,3.4,0,0,0,1.134-2.677Z" transform="translate(-311.56 -257.264)" fill="#fff"/><path d="M520.7,320.753V294.732h19.59v5.092h-13.94V305.1h12.267V310.2H526.348v5.465h14.126v5.092Z" transform="translate(-324.207 -257.264)" fill="#fff"/><g transform="translate(84.219 67.602)"><path d="M352.261,345.857v-.021a2.7,2.7,0,0,1,4.733-1.785l-.511.542a2.093,2.093,0,0,0-1.574-.782,1.913,1.913,0,0,0-1.856,2.006v.019a1.937,1.937,0,0,0,1.906,2.016,2.139,2.139,0,0,0,1.584-.772l.491.461a2.682,2.682,0,0,1-4.773-1.684Z" transform="translate(-352.261 -341.003)" fill="#fff"/><path d="M360.628,345.847v-.02a2.558,2.558,0,0,1,2.487-2.7,2.468,2.468,0,0,1,2.417,2.738,2.006,2.006,0,0,1-.01.25H361.41a1.812,1.812,0,0,0,1.826,1.756,2.146,2.146,0,0,0,1.634-.733l.481.431a2.676,2.676,0,0,1-2.136.973A2.576,2.576,0,0,1,360.628,345.847Zm4.122-.3a1.708,1.708,0,0,0-1.655-1.765,1.788,1.788,0,0,0-1.685,1.765Z" transform="translate(-355.051 -341.003)" fill="#fff"/><path d="M370.019,343.24h.772v.9a1.964,1.964,0,0,1,1.775-1.013,1.894,1.894,0,0,1,1.986,2.076v3.219h-.773V345.4a1.382,1.382,0,0,0-1.434-1.564,1.526,1.526,0,0,0-1.554,1.625v2.968h-.772Z" transform="translate(-358.182 -341.003)" fill="#fff"/><path d="M379.334,346.323v-3.129h-.723v-.682h.723v-1.564h.772v1.564h1.644v.682h-1.644v3.029a.767.767,0,0,0,.872.863,1.625,1.625,0,0,0,.753-.181v.663a1.949,1.949,0,0,1-.933.221A1.32,1.32,0,0,1,379.334,346.323Z" transform="translate(-361.047 -340.276)" fill="#fff"/><path d="M385.368,343.249h.773V344.6a2.22,2.22,0,0,1,2.116-1.444v.832h-.06a2.09,2.09,0,0,0-2.056,2.377v2.066h-.773Z" transform="translate(-363.301 -341.013)" fill="#fff"/><path d="M390.65,345.857v-.021a2.7,2.7,0,0,1,5.406-.019v.019a2.692,2.692,0,0,1-2.718,2.708A2.656,2.656,0,0,1,390.65,345.857Zm4.613,0v-.021a1.962,1.962,0,0,0-1.925-2.025,1.913,1.913,0,0,0-1.9,2.006v.019a1.945,1.945,0,0,0,1.915,2.016A1.912,1.912,0,0,0,395.263,345.857Z" transform="translate(-365.062 -341.003)" fill="#fff"/><path d="M404.886,345.857v-.021a2.7,2.7,0,0,1,5.406-.019v.019a2.692,2.692,0,0,1-2.718,2.708A2.656,2.656,0,0,1,404.886,345.857Zm4.613,0v-.021a1.962,1.962,0,0,0-1.925-2.025,1.913,1.913,0,0,0-1.9,2.006v.019a1.945,1.945,0,0,0,1.915,2.016A1.912,1.912,0,0,0,409.5,345.857Z" transform="translate(-369.809 -341.003)" fill="#fff"/><path d="M414.638,344.833v-.02a2.544,2.544,0,0,1,2.476-2.7,2.34,2.34,0,0,1,1.986,1.1v-3.129h.772v7.32H419.1v-1.042a2.333,2.333,0,0,1-1.986,1.152A2.528,2.528,0,0,1,414.638,344.833Zm4.493-.01V344.8a1.927,1.927,0,0,0-1.876-2,1.83,1.83,0,0,0-1.825,2v.019a1.873,1.873,0,0,0,1.825,2.006A1.936,1.936,0,0,0,419.131,344.824Z" transform="translate(-373.061 -339.99)" fill="#fff"/><path d="M424.6,345.857v-.021a2.7,2.7,0,0,1,5.406-.019v.019a2.692,2.692,0,0,1-2.718,2.708A2.656,2.656,0,0,1,424.6,345.857Zm4.613,0v-.021a1.962,1.962,0,0,0-1.925-2.025,1.913,1.913,0,0,0-1.9,2.006v.019a1.945,1.945,0,0,0,1.915,2.016A1.912,1.912,0,0,0,429.213,345.857Z" transform="translate(-376.382 -341.003)" fill="#fff"/><path d="M434.8,343.24h.773v.9a1.964,1.964,0,0,1,1.774-1.013,1.894,1.894,0,0,1,1.986,2.076v3.219h-.772V345.4a1.382,1.382,0,0,0-1.434-1.564,1.525,1.525,0,0,0-1.554,1.625v2.968H434.8Z" transform="translate(-379.785 -341.003)" fill="#fff"/><path d="M444.118,346.323v-3.129H443.4v-.682h.722v-1.564h.772v1.564h1.645v.682H444.89v3.029a.768.768,0,0,0,.872.863,1.621,1.621,0,0,0,.752-.181v.663a1.944,1.944,0,0,1-.932.221A1.32,1.32,0,0,1,444.118,346.323Z" transform="translate(-382.65 -340.276)" fill="#fff"/><path d="M449.445,345.857v-.021a2.7,2.7,0,0,1,5.406-.019v.019a2.692,2.692,0,0,1-2.718,2.708A2.656,2.656,0,0,1,449.445,345.857Zm4.613,0v-.021a1.962,1.962,0,0,0-1.925-2.025,1.913,1.913,0,0,0-1.9,2.006v.019a1.945,1.945,0,0,0,1.915,2.016A1.912,1.912,0,0,0,454.058,345.857Z" transform="translate(-384.667 -341.003)" fill="#fff"/><path d="M459.754,340.091h.772v7.32h-.772Z" transform="translate(-388.104 -339.99)" fill="#fff"/><path d="M463.124,344.794v-.021a2.7,2.7,0,0,1,5.406-.019v.019a2.692,2.692,0,0,1-2.718,2.708A2.656,2.656,0,0,1,463.124,344.794Zm4.613,0v-.021a1.962,1.962,0,0,0-1.925-2.025,1.913,1.913,0,0,0-1.9,2.006v.019a1.945,1.945,0,0,0,1.915,2.016A1.912,1.912,0,0,0,467.737,344.794Zm-1.284-4.854.8.371-1.143,1.083h-.6Z" transform="translate(-389.228 -339.94)" fill="#fff"/><path d="M473.117,349.327l.351-.6a3.311,3.311,0,0,0,2,.661,1.7,1.7,0,0,0,1.884-1.845v-.612a2.454,2.454,0,0,1-2.035,1.094,2.4,2.4,0,0,1-2.437-2.427v-.021a2.408,2.408,0,0,1,2.437-2.447,2.433,2.433,0,0,1,2.026,1.043v-.932h.772v4.282a2.5,2.5,0,0,1-.662,1.835,2.725,2.725,0,0,1-1.975.692A4.061,4.061,0,0,1,473.117,349.327Zm4.252-3.74v-.021a1.816,1.816,0,0,0-1.9-1.754,1.714,1.714,0,0,0-1.8,1.744v.02a1.755,1.755,0,0,0,1.8,1.765A1.829,1.829,0,0,0,477.369,345.587Z" transform="translate(-392.48 -341.003)" fill="#fff"/><path d="M483.349,340.317h.883v.852h-.883Zm.05,1.985h.773v5.184H483.4Z" transform="translate(-395.972 -340.066)" fill="#fff"/><path d="M486.8,345.857v-.021a2.7,2.7,0,0,1,4.733-1.785l-.511.542a2.093,2.093,0,0,0-1.574-.782,1.913,1.913,0,0,0-1.856,2.006v.019a1.937,1.937,0,0,0,1.906,2.016,2.139,2.139,0,0,0,1.584-.772l.491.461a2.682,2.682,0,0,1-4.773-1.684Z" transform="translate(-397.121 -341.003)" fill="#fff"/><path d="M495.162,345.857v-.021a2.7,2.7,0,0,1,5.406-.019v.019a2.692,2.692,0,0,1-2.718,2.708A2.656,2.656,0,0,1,495.162,345.857Zm4.614,0v-.021a1.962,1.962,0,0,0-1.926-2.025,1.913,1.913,0,0,0-1.9,2.006v.019a1.945,1.945,0,0,0,1.915,2.016A1.913,1.913,0,0,0,499.776,345.857Z" transform="translate(-399.911 -341.003)" fill="#fff"/></g></g><g transform="translate(448.828 279.917)"><path d="M560.46,321.576a25.588,25.588,0,0,1-.111-3.055q.025-1.819.178-3.831t.4-4q.244-1.992.547-3.589a23.306,23.306,0,0,1,.623-2.614q.32-1.018.645-1.053a2.594,2.594,0,0,1,.661.062,7.987,7.987,0,0,1,.888.216,5.208,5.208,0,0,1,.777.3c.231.114.353.229.366.347a.205.205,0,0,1-.043.154q-.1.16-.179.273a.874.874,0,0,0-.12.265,8.618,8.618,0,0,0-.5,1.44q-.233.873-.443,1.939t-.392,2.276q-.181,1.212-.343,2.45a1.535,1.535,0,0,0,.215.065,1.743,1.743,0,0,1,.216.066q1.068-1.129,2.151-2.528t2.084-2.863q1-1.464,1.814-2.892a27.006,27.006,0,0,0,1.333-2.647.962.962,0,0,0,.087-.293,1.766,1.766,0,0,1,.058-.289.454.454,0,0,1,.075-.127c.092-.069.255-.067.492.006a4.485,4.485,0,0,1,.749.32,7.914,7.914,0,0,1,.75.454,2.626,2.626,0,0,1,.491.409q.2.245-.3,1.208a22.652,22.652,0,0,1-1.444,2.317q-.94,1.354-2.2,2.934t-2.554,3.063q-.449.526-.914,1.038t-.95.982q.95,1.058,1.986,2.091t2.092,1.976q1.055.942,2.1,1.736a18.487,18.487,0,0,0,1.993,1.346l.282.133a1.656,1.656,0,0,0,.28.1c.039,0,.081.021.127.075q.075.141-.083.471a5.121,5.121,0,0,1-.415.7,7.519,7.519,0,0,1-.549.7,2.606,2.606,0,0,1-.459.437q-.248.177-1.151-.455a22.856,22.856,0,0,1-2.124-1.734q-1.223-1.1-2.645-2.54t-2.744-2.9q-.173-.219-.359-.422t-.358-.423a1.592,1.592,0,0,1-.4-.105q-.211,2.168-.294,3.993a19.229,19.229,0,0,0,.012,2.708.314.314,0,0,1-.314.392,1.857,1.857,0,0,1-.617-.053,3.43,3.43,0,0,1-.665-.224,2.1,2.1,0,0,1-.545-.358A.723.723,0,0,1,560.46,321.576Z" transform="translate(-560.345 -300.95)" fill="#e3434f"/><path d="M578.458,320.309a4.211,4.211,0,0,0,.013-.567,3.907,3.907,0,0,1,.012-.567,40.7,40.7,0,0,1,.445-4.381,28.931,28.931,0,0,1,.922-4.105q.135-.4.4-.431a1.665,1.665,0,0,1,.5.035,3.742,3.742,0,0,1,.569.161,4.618,4.618,0,0,1,.516.226q.237.124.4.225a.294.294,0,0,1,.135.417,1.846,1.846,0,0,0-.153.508q-.277,1.013-.5,2.138t-.394,2.247q-.176,1.122-.286,2.16t-.17,1.85q-.024.33.127.344a.378.378,0,0,0,.307-.183,9.367,9.367,0,0,0,1.091-1.742,19.436,19.436,0,0,0,.864-2.044q.376-1.053.668-2.068t.5-1.812a.462.462,0,0,1,.21-.261.385.385,0,0,1,.295-.032.415.415,0,0,1,.293.5c-.1.349-.229.809-.385,1.382s-.346,1.194-.571,1.864-.478,1.348-.76,2.034a14.214,14.214,0,0,1-.927,1.873,7,7,0,0,1-1.082,1.413,2.029,2.029,0,0,1-1.2.637,1.383,1.383,0,0,1-.711-.1,1.74,1.74,0,0,1-.581-.413,2.01,2.01,0,0,1-.394-.612A1.934,1.934,0,0,1,578.458,320.309Zm3.1-15.554q.322-.87.616-.9a3.378,3.378,0,0,1,.809.179,5.218,5.218,0,0,1,1.014.425c.443.23.525.627.25,1.194q-.172.347-.478.945t-.661,1.174a10.2,10.2,0,0,1-.708,1.015,1.1,1.1,0,0,1-.619.47.626.626,0,0,1-.784-.5,3.585,3.585,0,0,1-.078-1.391,10.21,10.21,0,0,1,.305-1.566A10.063,10.063,0,0,1,581.554,304.755Z" transform="translate(-566.385 -301.703)" fill="#7680bd"/><path d="M591.622,317.177a1.513,1.513,0,0,1-.01-.223,1.679,1.679,0,0,0-.013-.251,14.268,14.268,0,0,1-.552,1.356,6.513,6.513,0,0,1-.679,1.146,3.983,3.983,0,0,1-.832.835,2.021,2.021,0,0,1-.984.391,1.8,1.8,0,0,1-1.683-.546,3.308,3.308,0,0,1-.726-1.6,12.042,12.042,0,0,1-.1-2.594,14.209,14.209,0,0,1,.439-2.788,10.342,10.342,0,0,1,1.021-2.523,5.5,5.5,0,0,1,1.631-1.832,1.347,1.347,0,0,1,.715-.271,2.529,2.529,0,0,1,.766.065,5.351,5.351,0,0,1,.757.246c.249.1.487.19.714.265q.179-1.628.391-3.1t.476-2.6a15.755,15.755,0,0,1,.516-1.813q.253-.683.519-.711a2.56,2.56,0,0,1,.662.061,9,9,0,0,1,.9.215,4.881,4.881,0,0,1,.792.3q.346.17.365.347a.136.136,0,0,1-.072.157,1.341,1.341,0,0,1-.164.271.726.726,0,0,0-.134.267,16.469,16.469,0,0,0-.848,3.011q-.4,1.95-.7,4.2t-.5,4.462q-.191,2.209-.227,3.791-.011.985.507.273a9.2,9.2,0,0,0,1.031-1.736q.458-.987.837-2.012t.659-2.007q.28-.983.465-1.748a.459.459,0,0,1,.21-.261.383.383,0,0,1,.294-.032.419.419,0,0,1,.243.181.414.414,0,0,1,.05.323q-.152.523-.385,1.382t-.571,1.864q-.337,1.006-.76,2.034a14.3,14.3,0,0,1-.927,1.873,7.029,7.029,0,0,1-1.081,1.413,2.035,2.035,0,0,1-1.2.637,1.361,1.361,0,0,1-.974-.192,1.6,1.6,0,0,1-.535-.671,3.159,3.159,0,0,1-.233-.913C591.658,317.789,591.633,317.474,591.622,317.177Zm-.361-7.673a1.717,1.717,0,0,0-1.256.911,7.43,7.43,0,0,0-.838,2.012,17.767,17.767,0,0,0-.475,2.464,16.23,16.23,0,0,0-.141,2.264,2.85,2.85,0,0,0,.233,1.18q.208.41.532.375.5-.055.987-1.061a12.837,12.837,0,0,0,.771-1.945q.353-1.125.617-2.256.054-.868.121-1.755t.147-1.788A.682.682,0,0,0,591.26,309.5Z" transform="translate(-568.904 -300.627)" fill="#ffc137"/><path d="M603.678,322.732a2.482,2.482,0,0,1-1.22-.134,1.944,1.944,0,0,1-.809-.58,1.546,1.546,0,0,1-.331-.855,1.762,1.762,0,0,1,.208-.958,1.845,1.845,0,0,1,.781-.888,3.919,3.919,0,0,1,1.13-.421c.329-.075.655-.141.977-.195a6.131,6.131,0,0,0,.884-.216,2.889,2.889,0,0,0-.6-1.167q-.445-.53-.9-1.059a9.568,9.568,0,0,1-.856-1.154,3.423,3.423,0,0,1-.489-1.477,2.79,2.79,0,0,1,.142-1.292,2.921,2.921,0,0,1,.633-1.02,3.373,3.373,0,0,1,.965-.7,3.536,3.536,0,0,1,1.17-.335,1.616,1.616,0,0,1,.837.162,3.41,3.41,0,0,1,.849.547,3.824,3.824,0,0,1,.68.774,1.875,1.875,0,0,1,.327.813,1.628,1.628,0,0,1-.045.541,3.021,3.021,0,0,1-.2.588,2.085,2.085,0,0,1-.3.48.545.545,0,0,1-.319.213,2.394,2.394,0,0,1-1.058-.14q-.558-.194-.583-.433a.177.177,0,0,1,.046-.126q.382-.041.6-.546a1.861,1.861,0,0,0,.168-.921.876.876,0,0,0-.169-.448.389.389,0,0,0-.374-.155.654.654,0,0,0-.449.258,1.691,1.691,0,0,0-.284.537,2.78,2.78,0,0,0-.127.609,2.651,2.651,0,0,0,0,.507,2.39,2.39,0,0,0,.385,1.074,6.906,6.906,0,0,0,.725.919q.4.433.824.863a5.124,5.124,0,0,1,.709.906,5.744,5.744,0,0,0,1.784-1.937,9.118,9.118,0,0,0,.919-2.5.354.354,0,0,1,.179-.257.44.44,0,0,1,.293-.047.414.414,0,0,1,.256.165.378.378,0,0,1,.065.321A9.208,9.208,0,0,1,609.941,316a6.952,6.952,0,0,1-2.008,2.066,2.93,2.93,0,0,1-.09,1.766,3.94,3.94,0,0,1-.96,1.43,5.119,5.119,0,0,1-1.5,1A5.767,5.767,0,0,1,603.678,322.732Zm1.683-3.4a4.341,4.341,0,0,1-1.122.227,3.848,3.848,0,0,0-1.147.259.96.96,0,0,0-.627.531.925.925,0,0,0-.015.687.853.853,0,0,0,.47.485,1.023,1.023,0,0,0,.854-.078,3.209,3.209,0,0,0,1.586-2.11Z" transform="translate(-574.006 -303.843)" fill="#23efe9"/></g></g></svg>